<svg id="Calque_1" data-name="Calque 1" xmlns="http://www.w3.org/2000/svg" viewBox="0 0 2696.49 2335.86"><title>original-3000x3000</title><path d="M675.83,1888.46a830,830,0,0,1,12.45-143.54,2.4,2.4,0,0,0-4.44-1.63l-531.76,921a2.41,2.41,0,0,0,2.09,3.61H1216a2.41,2.41,0,0,0,.82-4.67C901.11,2547.5,675.83,2244.3,675.83,1888.46Z" transform="translate(-151.76 -332.07)"/><path d="M1785.66,2667.93H2845.83a2.41,2.41,0,0,0,2.09-3.61L2318.53,1747.4a2.4,2.4,0,0,0-4.45,1.61,830.13,830.13,0,0,1,11.75,139.45c0,355.84-225.28,659-541,774.8A2.41,2.41,0,0,0,1785.66,2667.93Z" transform="translate(-151.76 -332.07)"/><path d="M2032,1251.13,1502.08,333.27a2.4,2.4,0,0,0-4.16,0L966.44,1253.81a2.41,2.41,0,0,0,3.64,3,825,825,0,0,1,1058.31-2.68A2.4,2.4,0,0,0,2032,1251.13Z" transform="translate(-151.76 -332.07)"/><rect x="898.24" y="1156.23" width="900" height="300" rx="10.5"/><rect x="899.24" y="1656.23" width="900" height="300" rx="10.5"/></svg>